<?xml version="1.0" encoding="UTF-8" standalone="no"?>
<!-- Generator: Adobe Illustrator 27.5.0, SVG Export Plug-In . SVG Version: 6.00 Build 0)  -->

<svg
   version="1.1"
   id="Background"
   x="0px"
   y="0px"
   viewBox="0 0 2074.394 2074.394"
   xml:space="preserve"
   sodipodi:docname="fondoPagina.svg"
   width="2074.394"
   height="2074.394"
   inkscape:version="1.3.2 (091e20e, 2023-11-25, custom)"
   xmlns:inkscape="http://www.inkscape.org/namespaces/inkscape"
   xmlns:sodipodi="http://sodipodi.sourceforge.net/DTD/sodipodi-0.dtd"
   xmlns:xlink="http://www.w3.org/1999/xlink"
   xmlns="http://www.w3.org/2000/svg"
   xmlns:svg="http://www.w3.org/2000/svg"><defs
   id="defs321" /><sodipodi:namedview
   id="namedview321"
   pagecolor="#ffffff"
   bordercolor="#000000"
   borderopacity="0.25"
   inkscape:showpageshadow="2"
   inkscape:pageopacity="0.0"
   inkscape:pagecheckerboard="0"
   inkscape:deskcolor="#d1d1d1"
   inkscape:zoom="0.0890625"
   inkscape:cx="1757.193"
   inkscape:cy="3003.5088"
   inkscape:window-width="1920"
   inkscape:window-height="1111"
   inkscape:window-x="-9"
   inkscape:window-y="-9"
   inkscape:window-maximized="1"
   inkscape:current-layer="Background" />
<g
   id="g321"
   transform="scale(1.7286617)">
	<defs
   id="defs1">
		<rect
   id="SVGID_1_"
   width="1200"
   height="1200"
   x="0"
   y="0" />
	</defs>
	<clipPath
   id="SVGID_00000016060229030233626490000016783016029204351914_">
		<use
   xlink:href="#SVGID_1_"
   style="overflow:visible"
   id="use1" />
	</clipPath>
	<g
   clip-path="url(#SVGID_00000016060229030233626490000016783016029204351914_)"
   id="g320">
		<polygon
   style="fill:#f7c987"
   points="-62.618,-38.794 -17.695,-38.794 4.767,0.111 -17.695,39.015 -62.618,39.015 -85.079,0.111 "
   id="polygon1" />
		<polygon
   style="fill:#f6cc8e"
   points="4.767,0.111 49.69,0.111 72.152,39.015 49.69,77.919 4.767,77.919 -17.695,39.015 "
   id="polygon2" />
		<polygon
   style="fill:#f9d39a"
   points="72.152,-38.794 117.075,-38.794 139.537,0.111 117.075,39.015 72.152,39.015 49.69,0.111 "
   id="polygon3" />
		<polygon
   style="fill:#f9d8a3"
   points="139.537,0.111 184.46,0.111 206.921,39.015 184.46,77.919 139.537,77.919 117.075,39.015 "
   id="polygon4" />
		<polygon
   style="fill:#fadaab"
   points="206.921,-38.794 251.845,-38.794 274.307,0.111 251.845,39.015 206.921,39.015 184.46,0.111 "
   id="polygon5" />
		<polygon
   style="fill:#fbdaae"
   points="274.307,0.111 319.229,0.111 341.692,39.015 319.229,77.919 274.307,77.919 251.845,39.015 "
   id="polygon6" />
		<polygon
   style="fill:#fad8af"
   points="341.692,-38.794 386.614,-38.794 409.076,0.111 386.614,39.015 341.692,39.015 319.229,0.111 "
   id="polygon7" />
		<polygon
   style="fill:#fad5ae"
   points="409.076,0.111 453.999,0.111 476.461,39.015 453.999,77.919 409.076,77.919 386.614,39.015 "
   id="polygon8" />
		<polygon
   style="fill:#f8d1a9"
   points="476.461,-38.794 521.385,-38.794 543.846,0.111 521.385,39.015 476.461,39.015 453.999,0.111 "
   id="polygon9" />
		<polygon
   style="fill:#f8c8a2"
   points="543.846,0.111 588.769,0.111 611.231,39.015 588.769,77.919 543.846,77.919 521.385,39.015 "
   id="polygon10" />
		<polygon
   style="fill:#f5ba93"
   points="611.231,-38.794 656.154,-38.794 678.615,0.111 656.154,39.015 611.231,39.015 588.769,0.111 "
   id="polygon11" />
		<polygon
   style="fill:#f0aa8a"
   points="678.615,0.111 723.539,0.111 746,39.015 723.539,77.919 678.615,77.919 656.154,39.015 "
   id="polygon12" />
		<polygon
   style="fill:#ec9c80"
   points="746,-38.794 790.924,-38.794 813.386,0.111 790.924,39.015 746,39.015 723.539,0.111 "
   id="polygon13" />
		<polygon
   style="fill:#e78c80"
   points="813.386,0.111 858.309,0.111 880.769,39.015 858.309,77.919 813.386,77.919 790.924,39.015 "
   id="polygon14" />
		<polygon
   style="fill:#e37e80"
   points="880.769,-38.794 925.693,-38.794 948.154,0.111 925.693,39.015 880.769,39.015 858.309,0.111 "
   id="polygon15" />
		<polygon
   style="fill:#de7382"
   points="948.154,0.111 993.078,0.111 1015.54,39.015 993.078,77.919 948.154,77.919 925.693,39.015 "
   id="polygon16" />
		<polygon
   style="fill:#d76881"
   points="1015.54,-38.794 1060.464,-38.794 1082.925,0.111 1060.464,39.015 1015.54,39.015 993.078,0.111 "
   id="polygon17" />
		<polygon
   style="fill:#d46083"
   points="1082.925,0.111 1127.848,0.111 1150.311,39.015 1127.848,77.919 1082.925,77.919 1060.464,39.015 "
   id="polygon18" />
		<polygon
   style="fill:#cc597f"
   points="1150.311,-38.794 1195.232,-38.794 1217.694,0.111 1195.232,39.015 1150.311,39.015 1127.848,0.111 "
   id="polygon19" />
		<polygon
   style="fill:#ca5680"
   points="1217.694,0.111 1262.618,0.111 1285.079,39.015 1262.618,77.919 1217.694,77.919 1195.232,39.015 "
   id="polygon20" />
		<polygon
   style="fill:#f6c886"
   points="-62.618,39.015 -17.695,39.015 4.767,77.919 -17.695,116.823 -62.618,116.823 -85.079,77.919 "
   id="polygon21" />
		<polygon
   style="fill:#f7cb8c"
   points="4.767,77.919 49.69,77.919 72.152,116.823 49.69,155.727 4.767,155.727 -17.695,116.823 "
   id="polygon22" />
		<polygon
   style="fill:#f8d299"
   points="72.152,39.015 117.075,39.015 139.537,77.919 117.075,116.823 72.152,116.823 49.69,77.919 "
   id="polygon23" />
		<polygon
   style="fill:#f9d7a3"
   points="139.537,77.919 184.46,77.919 206.921,116.823 184.46,155.727 139.537,155.727 117.075,116.823 "
   id="polygon24" />
		<polygon
   style="fill:#fadaab"
   points="206.921,39.015 251.845,39.015 274.307,77.919 251.845,116.823 206.921,116.823 184.46,77.919 "
   id="polygon25" />
		<polygon
   style="fill:#fad9ae"
   points="274.307,77.919 319.229,77.919 341.692,116.823 319.229,155.727 274.307,155.727 251.845,116.823 "
   id="polygon26" />
		<polygon
   style="fill:#fad8af"
   points="341.692,39.015 386.614,39.015 409.076,77.919 386.614,116.823 341.692,116.823 319.229,77.919 "
   id="polygon27" />
		<polygon
   style="fill:#fad5b1"
   points="409.076,77.919 453.999,77.919 476.461,116.823 453.999,155.727 409.076,155.727 386.614,116.823 "
   id="polygon28" />
		<polygon
   style="fill:#f9d0ac"
   points="476.461,39.015 521.385,39.015 543.846,77.919 521.385,116.823 476.461,116.823 453.999,77.919 "
   id="polygon29" />
		<polygon
   style="fill:#f9c6a5"
   points="543.846,77.919 588.769,77.919 611.231,116.823 588.769,155.727 543.846,155.727 521.385,116.823 "
   id="polygon30" />
		<polygon
   style="fill:#f5ba98"
   points="611.231,39.015 656.154,39.015 678.615,77.919 656.154,116.823 611.231,116.823 588.769,77.919 "
   id="polygon31" />
		<polygon
   style="fill:#f2aa90"
   points="678.615,77.919 723.539,77.919 746,116.823 723.539,155.727 678.615,155.727 656.154,116.823 "
   id="polygon32" />
		<polygon
   style="fill:#ec9a85"
   points="746,39.015 790.924,39.015 813.386,77.919 790.924,116.823 746,116.823 723.539,77.919 "
   id="polygon33" />
		<polygon
   style="fill:#ea8c86"
   points="813.386,77.919 858.309,77.919 880.769,116.823 858.309,155.727 813.386,155.727 790.924,116.823 "
   id="polygon34" />
		<polygon
   style="fill:#e57e83"
   points="880.769,39.015 925.693,39.015 948.154,77.919 925.693,116.823 880.769,116.823 858.309,77.919 "
   id="polygon35" />
		<polygon
   style="fill:#e37286"
   points="948.154,77.919 993.078,77.919 1015.54,116.823 993.078,155.727 948.154,155.727 925.693,116.823 "
   id="polygon36" />
		<polygon
   style="fill:#da6984"
   points="1015.54,39.015 1060.464,39.015 1082.925,77.919 1060.464,116.823 1015.54,116.823 993.078,77.919 "
   id="polygon37" />
		<polygon
   style="fill:#d96086"
   points="1082.925,77.919 1127.848,77.919 1150.311,116.823 1127.848,155.727 1082.925,155.727 1060.464,116.823 "
   id="polygon38" />
		<polygon
   style="fill:#d25a83"
   points="1150.311,39.015 1195.232,39.015 1217.694,77.919 1195.232,116.823 1150.311,116.823 1127.848,77.919 "
   id="polygon39" />
		<polygon
   style="fill:#d05883"
   points="1217.694,77.919 1262.618,77.919 1285.079,116.823 1262.618,155.727 1217.694,155.727 1195.232,116.823 "
   id="polygon40" />
		<polygon
   style="fill:#f5c883"
   points="-62.618,116.823 -17.695,116.823 4.767,155.727 -17.695,194.631 -62.618,194.631 -85.079,155.727 "
   id="polygon41" />
		<polygon
   style="fill:#f7cb8a"
   points="4.767,155.727 49.69,155.727 72.152,194.631 49.69,233.536 4.767,233.536 -17.695,194.631 "
   id="polygon42" />
		<polygon
   style="fill:#f8d298"
   points="72.152,116.823 117.075,116.823 139.537,155.727 117.075,194.631 72.152,194.631 49.69,155.727 "
   id="polygon43" />
		<polygon
   style="fill:#f9d7a2"
   points="139.537,155.727 184.46,155.727 206.921,194.631 184.46,233.536 139.537,233.536 117.075,194.631 "
   id="polygon44" />
		<polygon
   style="fill:#fad9a9"
   points="206.921,116.823 251.845,116.823 274.307,155.727 251.845,194.631 206.921,194.631 184.46,155.727 "
   id="polygon45" />
		<polygon
   style="fill:#fad9af"
   points="274.307,155.727 319.229,155.727 341.692,194.631 319.229,233.536 274.307,233.536 251.845,194.631 "
   id="polygon46" />
		<polygon
   style="fill:#fad7b0"
   points="341.692,116.823 386.614,116.823 409.076,155.727 386.614,194.631 341.692,194.631 319.229,155.727 "
   id="polygon47" />
		<polygon
   style="fill:#f9d3b0"
   points="409.076,155.727 453.999,155.727 476.461,194.631 453.999,233.536 409.076,233.536 386.614,194.631 "
   id="polygon48" />
		<polygon
   style="fill:#fbcfae"
   points="476.461,116.823 521.385,116.823 543.846,155.727 521.385,194.631 476.461,194.631 453.999,155.727 "
   id="polygon49" />
		<polygon
   style="fill:#f8c4a9"
   points="543.846,155.727 588.769,155.727 611.231,194.631 588.769,233.536 543.846,233.536 521.385,194.631 "
   id="polygon50" />
		<polygon
   style="fill:#f4b89e"
   points="611.231,116.823 656.154,116.823 678.615,155.727 656.154,194.631 611.231,194.631 588.769,155.727 "
   id="polygon51" />
		<polygon
   style="fill:#f2aa96"
   points="678.615,155.727 723.539,155.727 746,194.631 723.539,233.536 678.615,233.536 656.154,194.631 "
   id="polygon52" />
		<polygon
   style="fill:#ee9a8c"
   points="746,116.823 790.924,116.823 813.386,155.727 790.924,194.631 746,194.631 723.539,155.727 "
   id="polygon53" />
		<polygon
   style="fill:#ec8d8d"
   points="813.386,155.727 858.309,155.727 880.769,194.631 858.309,233.536 813.386,233.536 790.924,194.631 "
   id="polygon54" />
		<polygon
   style="fill:#e87e89"
   points="880.769,116.823 925.693,116.823 948.154,155.727 925.693,194.631 880.769,194.631 858.309,155.727 "
   id="polygon55" />
		<polygon
   style="fill:#e6728a"
   points="948.154,155.727 993.078,155.727 1015.54,194.631 993.078,233.536 948.154,233.536 925.693,194.631 "
   id="polygon56" />
		<polygon
   style="fill:#df6888"
   points="1015.54,116.823 1060.464,116.823 1082.925,155.727 1060.464,194.631 1015.54,194.631 993.078,155.727 "
   id="polygon57" />
		<polygon
   style="fill:#db6289"
   points="1082.925,155.727 1127.848,155.727 1150.311,194.631 1127.848,233.536 1082.925,233.536 1060.464,194.631 "
   id="polygon58" />
		<polygon
   style="fill:#d65c87"
   points="1150.311,116.823 1195.232,116.823 1217.694,155.727 1195.232,194.631 1150.311,194.631 1127.848,155.727 "
   id="polygon59" />
		<polygon
   style="fill:#d65a87"
   points="1217.694,155.727 1262.618,155.727 1285.079,194.631 1262.618,233.536 1217.694,233.536 1195.232,194.631 "
   id="polygon60" />
		<polygon
   style="fill:#f6c681"
   points="-62.618,194.631 -17.695,194.631 4.767,233.536 -17.695,272.44 -62.618,272.44 -85.079,233.536 "
   id="polygon61" />
		<polygon
   style="fill:#f7ca88"
   points="4.767,233.536 49.69,233.536 72.152,272.44 49.69,311.344 4.767,311.344 -17.695,272.44 "
   id="polygon62" />
		<polygon
   style="fill:#f8d196"
   points="72.152,194.631 117.075,194.631 139.537,233.536 117.075,272.44 72.152,272.44 49.69,233.536 "
   id="polygon63" />
		<polygon
   style="fill:#f9d7a2"
   points="139.537,233.536 184.46,233.536 206.921,272.44 184.46,311.344 139.537,311.344 117.075,272.44 "
   id="polygon64" />
		<polygon
   style="fill:#fbd8ab"
   points="206.921,194.631 251.845,194.631 274.307,233.536 251.845,272.44 206.921,272.44 184.46,233.536 "
   id="polygon65" />
		<polygon
   style="fill:#fad7b0"
   points="274.307,233.536 319.229,233.536 341.692,272.44 319.229,311.344 274.307,311.344 251.845,272.44 "
   id="polygon66" />
		<polygon
   style="fill:#fad6b0"
   points="341.692,194.631 386.614,194.631 409.076,233.536 386.614,272.44 341.692,272.44 319.229,233.536 "
   id="polygon67" />
		<polygon
   style="fill:#fad2b2"
   points="409.076,233.536 453.999,233.536 476.461,272.44 453.999,311.344 409.076,311.344 386.614,272.44 "
   id="polygon68" />
		<polygon
   style="fill:#faceb0"
   points="476.461,194.631 521.385,194.631 543.846,233.536 521.385,272.44 476.461,272.44 453.999,233.536 "
   id="polygon69" />
		<polygon
   style="fill:#fac4ae"
   points="543.846,233.536 588.769,233.536 611.231,272.44 588.769,311.344 543.846,311.344 521.385,272.44 "
   id="polygon70" />
		<polygon
   style="fill:#f5b7a3"
   points="611.231,194.631 656.154,194.631 678.615,233.536 656.154,272.44 611.231,272.44 588.769,233.536 "
   id="polygon71" />
		<polygon
   style="fill:#f4aaa0"
   points="678.615,233.536 723.539,233.536 746,272.44 723.539,311.344 678.615,311.344 656.154,272.44 "
   id="polygon72" />
		<polygon
   style="fill:#f09b93"
   points="746,194.631 790.924,194.631 813.386,233.536 790.924,272.44 746,272.44 723.539,233.536 "
   id="polygon73" />
		<polygon
   style="fill:#f08f95"
   points="813.386,233.536 858.309,233.536 880.769,272.44 858.309,311.344 813.386,311.344 790.924,272.44 "
   id="polygon74" />
		<polygon
   style="fill:#e9808d"
   points="880.769,194.631 925.693,194.631 948.154,233.536 925.693,272.44 880.769,272.44 858.309,233.536 "
   id="polygon75" />
		<polygon
   style="fill:#e9758f"
   points="948.154,233.536 993.078,233.536 1015.54,272.44 993.078,311.344 948.154,311.344 925.693,272.44 "
   id="polygon76" />
		<polygon
   style="fill:#e3698b"
   points="1015.54,194.631 1060.464,194.631 1082.925,233.536 1060.464,272.44 1015.54,272.44 993.078,233.536 "
   id="polygon77" />
		<polygon
   style="fill:#e1648e"
   points="1082.925,233.536 1127.848,233.536 1150.311,272.44 1127.848,311.344 1082.925,311.344 1060.464,272.44 "
   id="polygon78" />
		<polygon
   style="fill:#d95d8a"
   points="1150.311,194.631 1195.232,194.631 1217.694,233.536 1195.232,272.44 1150.311,272.44 1127.848,233.536 "
   id="polygon79" />
		<polygon
   style="fill:#d85c8a"
   points="1217.694,233.536 1262.618,233.536 1285.079,272.44 1262.618,311.344 1217.694,311.344 1195.232,272.44 "
   id="polygon80" />
		<polygon
   style="fill:#f5c47f"
   points="-62.618,272.44 -17.695,272.44 4.767,311.344 -17.695,350.249 -62.618,350.249 -85.079,311.344 "
   id="polygon81" />
		<polygon
   style="fill:#f7c988"
   points="4.767,311.344 49.69,311.344 72.152,350.249 49.69,389.153 4.767,389.153 -17.695,350.249 "
   id="polygon82" />
		<polygon
   style="fill:#f8d195"
   points="72.152,272.44 117.075,272.44 139.537,311.344 117.075,350.249 72.152,350.249 49.69,311.344 "
   id="polygon83" />
		<polygon
   style="fill:#f9d6a2"
   points="139.537,311.344 184.46,311.344 206.921,350.249 184.46,389.153 139.537,389.153 117.075,350.249 "
   id="polygon84" />
		<polygon
   style="fill:#fad8ab"
   points="206.921,272.44 251.845,272.44 274.307,311.344 251.845,350.249 206.921,350.249 184.46,311.344 "
   id="polygon85" />
		<polygon
   style="fill:#fad7af"
   points="274.307,311.344 319.229,311.344 341.692,350.249 319.229,389.153 274.307,389.153 251.845,350.249 "
   id="polygon86" />
		<polygon
   style="fill:#f9d4b0"
   points="341.692,272.44 386.614,272.44 409.076,311.344 386.614,350.249 341.692,350.249 319.229,311.344 "
   id="polygon87" />
		<polygon
   style="fill:#f9d0b3"
   points="409.076,311.344 453.999,311.344 476.461,350.249 453.999,389.153 409.076,389.153 386.614,350.249 "
   id="polygon88" />
		<polygon
   style="fill:#f9ccb4"
   points="476.461,272.44 521.385,272.44 543.846,311.344 521.385,350.249 476.461,350.249 453.999,311.344 "
   id="polygon89" />
		<polygon
   style="fill:#fac3b1"
   points="543.846,311.344 588.769,311.344 611.231,350.249 588.769,389.153 543.846,389.153 521.385,350.249 "
   id="polygon90" />
		<polygon
   style="fill:#f7b8ab"
   points="611.231,272.44 656.154,272.44 678.615,311.344 656.154,350.249 611.231,350.249 588.769,311.344 "
   id="polygon91" />
		<polygon
   style="fill:#f4aba7"
   points="678.615,311.344 723.539,311.344 746,350.249 723.539,389.153 678.615,389.153 656.154,350.249 "
   id="polygon92" />
		<polygon
   style="fill:#f39e9d"
   points="746,272.44 790.924,272.44 813.386,311.344 790.924,350.249 746,350.249 723.539,311.344 "
   id="polygon93" />
		<polygon
   style="fill:#f2929f"
   points="813.386,311.344 858.309,311.344 880.769,350.249 858.309,389.153 813.386,389.153 790.924,350.249 "
   id="polygon94" />
		<polygon
   style="fill:#ec8295"
   points="880.769,272.44 925.693,272.44 948.154,311.344 925.693,350.249 880.769,350.249 858.309,311.344 "
   id="polygon95" />
		<polygon
   style="fill:#ea7896"
   points="948.154,311.344 993.078,311.344 1015.54,350.249 993.078,389.153 948.154,389.153 925.693,350.249 "
   id="polygon96" />
		<polygon
   style="fill:#e76c92"
   points="1015.54,272.44 1060.464,272.44 1082.925,311.344 1060.464,350.249 1015.54,350.249 993.078,311.344 "
   id="polygon97" />
		<polygon
   style="fill:#e46692"
   points="1082.925,311.344 1127.848,311.344 1150.311,350.249 1127.848,389.153 1082.925,389.153 1060.464,350.249 "
   id="polygon98" />
		<polygon
   style="fill:#df5f8d"
   points="1150.311,272.44 1195.232,272.44 1217.694,311.344 1195.232,350.249 1150.311,350.249 1127.848,311.344 "
   id="polygon99" />
		<polygon
   style="fill:#de5e8e"
   points="1217.694,311.344 1262.618,311.344 1285.079,350.249 1262.618,389.153 1217.694,389.153 1195.232,350.249 "
   id="polygon100" />
		<polygon
   style="fill:#f7c581"
   points="-62.618,350.249 -17.695,350.249 4.767,389.153 -17.695,428.057 -62.618,428.057 -85.079,389.153 "
   id="polygon101" />
		<polygon
   style="fill:#f7c988"
   points="4.767,389.153 49.69,389.153 72.152,428.057 49.69,466.961 4.767,466.961 -17.695,428.057 "
   id="polygon102" />
		<polygon
   style="fill:#f9cf95"
   points="72.152,350.249 117.075,350.249 139.537,389.153 117.075,428.057 72.152,428.057 49.69,389.153 "
   id="polygon103" />
		<polygon
   style="fill:#f9d4a1"
   points="139.537,389.153 184.46,389.153 206.921,428.057 184.46,466.961 139.537,466.961 117.075,428.057 "
   id="polygon104" />
		<polygon
   style="fill:#f9d7aa"
   points="206.921,350.249 251.845,350.249 274.307,389.153 251.845,428.057 206.921,428.057 184.46,389.153 "
   id="polygon105" />
		<polygon
   style="fill:#f9d5ae"
   points="274.307,389.153 319.229,389.153 341.692,428.057 319.229,466.961 274.307,466.961 251.845,428.057 "
   id="polygon106" />
		<polygon
   style="fill:#fad4b2"
   points="341.692,350.249 386.614,350.249 409.076,389.153 386.614,428.057 341.692,428.057 319.229,389.153 "
   id="polygon107" />
		<polygon
   style="fill:#f8d0b3"
   points="409.076,389.153 453.999,389.153 476.461,428.057 453.999,466.961 409.076,466.961 386.614,428.057 "
   id="polygon108" />
		<polygon
   style="fill:#facab6"
   points="476.461,350.249 521.385,350.249 543.846,389.153 521.385,428.057 476.461,428.057 453.999,389.153 "
   id="polygon109" />
		<polygon
   style="fill:#f9c1b6"
   points="543.846,389.153 588.769,389.153 611.231,428.057 588.769,466.961 543.846,466.961 521.385,428.057 "
   id="polygon110" />
		<polygon
   style="fill:#f7b9af"
   points="611.231,350.249 656.154,350.249 678.615,389.153 656.154,428.057 611.231,428.057 588.769,389.153 "
   id="polygon111" />
		<polygon
   style="fill:#f6adaf"
   points="678.615,389.153 723.539,389.153 746,428.057 723.539,466.961 678.615,466.961 656.154,428.057 "
   id="polygon112" />
		<polygon
   style="fill:#f3a0a6"
   points="746,350.249 790.924,350.249 813.386,389.153 790.924,428.057 746,428.057 723.539,389.153 "
   id="polygon113" />
		<polygon
   style="fill:#f496a7"
   points="813.386,389.153 858.309,389.153 880.769,428.057 858.309,466.961 813.386,466.961 790.924,428.057 "
   id="polygon114" />
		<polygon
   style="fill:#ef879e"
   points="880.769,350.249 925.693,350.249 948.154,389.153 925.693,428.057 880.769,428.057 858.309,389.153 "
   id="polygon115" />
		<polygon
   style="fill:#ed7b9d"
   points="948.154,389.153 993.078,389.153 1015.54,428.057 993.078,466.961 948.154,466.961 925.693,428.057 "
   id="polygon116" />
		<polygon
   style="fill:#ea6e94"
   points="1015.54,350.249 1060.464,350.249 1082.925,389.153 1060.464,428.057 1015.54,428.057 993.078,389.153 "
   id="polygon117" />
		<polygon
   style="fill:#e76895"
   points="1082.925,389.153 1127.848,389.153 1150.311,428.057 1127.848,466.961 1082.925,466.961 1060.464,428.057 "
   id="polygon118" />
		<polygon
   style="fill:#e26190"
   points="1150.311,350.249 1195.232,350.249 1217.694,389.153 1195.232,428.057 1150.311,428.057 1127.848,389.153 "
   id="polygon119" />
		<polygon
   style="fill:#e16091"
   points="1217.694,389.153 1262.618,389.153 1285.079,428.057 1262.618,466.961 1217.694,466.961 1195.232,428.057 "
   id="polygon120" />
		<polygon
   style="fill:#f6c67f"
   points="-62.618,428.057 -17.695,428.057 4.767,466.961 -17.695,505.865 -62.618,505.865 -85.079,466.961 "
   id="polygon121" />
		<polygon
   style="fill:#f8c886"
   points="4.767,466.961 49.69,466.961 72.152,505.865 49.69,544.769 4.767,544.769 -17.695,505.865 "
   id="polygon122" />
		<polygon
   style="fill:#f9cf94"
   points="72.152,428.057 117.075,428.057 139.537,466.961 117.075,505.865 72.152,505.865 49.69,466.961 "
   id="polygon123" />
		<polygon
   style="fill:#f9d5a1"
   points="139.537,466.961 184.46,466.961 206.921,505.865 184.46,544.769 139.537,544.769 117.075,505.865 "
   id="polygon124" />
		<polygon
   style="fill:#f9d6aa"
   points="206.921,428.057 251.845,428.057 274.307,466.961 251.845,505.865 206.921,505.865 184.46,466.961 "
   id="polygon125" />
		<polygon
   style="fill:#fad5b1"
   points="274.307,466.961 319.229,466.961 341.692,505.865 319.229,544.769 274.307,544.769 251.845,505.865 "
   id="polygon126" />
		<polygon
   style="fill:#f9d2b2"
   points="341.692,428.057 386.614,428.057 409.076,466.961 386.614,505.865 341.692,505.865 319.229,466.961 "
   id="polygon127" />
		<polygon
   style="fill:#faceb4"
   points="409.076,466.961 453.999,466.961 476.461,505.865 453.999,544.769 409.076,544.769 386.614,505.865 "
   id="polygon128" />
		<polygon
   style="fill:#fac8b7"
   points="476.461,428.057 521.385,428.057 543.846,466.961 521.385,505.865 476.461,505.865 453.999,466.961 "
   id="polygon129" />
		<polygon
   style="fill:#f9c1b7"
   points="543.846,466.961 588.769,466.961 611.231,505.865 588.769,544.769 543.846,544.769 521.385,505.865 "
   id="polygon130" />
		<polygon
   style="fill:#f8b9b7"
   points="611.231,428.057 656.154,428.057 678.615,466.961 656.154,505.865 611.231,505.865 588.769,466.961 "
   id="polygon131" />
		<polygon
   style="fill:#f7b0b5"
   points="678.615,466.961 723.539,466.961 746,505.865 723.539,544.769 678.615,544.769 656.154,505.865 "
   id="polygon132" />
		<polygon
   style="fill:#f5a4ad"
   points="746,428.057 790.924,428.057 813.386,466.961 790.924,505.865 746,505.865 723.539,466.961 "
   id="polygon133" />
		<polygon
   style="fill:#f59aaf"
   points="813.386,466.961 858.309,466.961 880.769,505.865 858.309,544.769 813.386,544.769 790.924,505.865 "
   id="polygon134" />
		<polygon
   style="fill:#f28ca7"
   points="880.769,428.057 925.693,428.057 948.154,466.961 925.693,505.865 880.769,505.865 858.309,466.961 "
   id="polygon135" />
		<polygon
   style="fill:#ee80a3"
   points="948.154,466.961 993.078,466.961 1015.54,505.865 993.078,544.769 948.154,544.769 925.693,505.865 "
   id="polygon136" />
		<polygon
   style="fill:#ea729a"
   points="1015.54,428.057 1060.464,428.057 1082.925,466.961 1060.464,505.865 1015.54,505.865 993.078,466.961 "
   id="polygon137" />
		<polygon
   style="fill:#ea6998"
   points="1082.925,466.961 1127.848,466.961 1150.311,505.865 1127.848,544.769 1082.925,544.769 1060.464,505.865 "
   id="polygon138" />
		<polygon
   style="fill:#e56294"
   points="1150.311,428.057 1195.232,428.057 1217.694,466.961 1195.232,505.865 1150.311,505.865 1127.848,466.961 "
   id="polygon139" />
		<polygon
   style="fill:#e66095"
   points="1217.694,466.961 1262.618,466.961 1285.079,505.865 1262.618,544.769 1217.694,544.769 1195.232,505.865 "
   id="polygon140" />
		<polygon
   style="fill:#f5c57d"
   points="-62.618,505.865 -17.695,505.865 4.767,544.769 -17.695,583.674 -62.618,583.674 -85.079,544.769 "
   id="polygon141" />
		<polygon
   style="fill:#f8c885"
   points="4.767,544.769 49.69,544.769 72.152,583.674 49.69,622.578 4.767,622.578 -17.695,583.674 "
   id="polygon142" />
		<polygon
   style="fill:#f9cf94"
   points="72.152,505.865 117.075,505.865 139.537,544.769 117.075,583.674 72.152,583.674 49.69,544.769 "
   id="polygon143" />
		<polygon
   style="fill:#f8d49f"
   points="139.537,544.769 184.46,544.769 206.921,583.674 184.46,622.578 139.537,622.578 117.075,583.674 "
   id="polygon144" />
		<polygon
   style="fill:#f9d8af"
   points="206.921,505.865 251.845,505.865 274.307,544.769 251.845,583.674 206.921,583.674 184.46,544.769 "
   id="polygon145" />
		<polygon
   style="fill:#fbd6b2"
   points="274.307,544.769 319.229,544.769 341.692,583.674 319.229,622.578 274.307,622.578 251.845,583.674 "
   id="polygon146" />
		<polygon
   style="fill:#f9d4b6"
   points="341.692,505.865 386.614,505.865 409.076,544.769 386.614,583.674 341.692,583.674 319.229,544.769 "
   id="polygon147" />
		<polygon
   style="fill:#fbcdb4"
   points="409.076,544.769 453.999,544.769 476.461,583.674 453.999,622.578 409.076,622.578 386.614,583.674 "
   id="polygon148" />
		<polygon
   style="fill:#f9c7b6"
   points="476.461,505.865 521.385,505.865 543.846,544.769 521.385,583.674 476.461,583.674 453.999,544.769 "
   id="polygon149" />
		<polygon
   style="fill:#f9bfb7"
   points="543.846,544.769 588.769,544.769 611.231,583.674 588.769,622.578 543.846,622.578 521.385,583.674 "
   id="polygon150" />
		<polygon
   style="fill:#f7b8b8"
   points="611.231,505.865 656.154,505.865 678.615,544.769 656.154,583.674 611.231,583.674 588.769,544.769 "
   id="polygon151" />
		<polygon
   style="fill:#f7b1b8"
   points="678.615,544.769 723.539,544.769 746,583.674 723.539,622.578 678.615,622.578 656.154,583.674 "
   id="polygon152" />
		<polygon
   style="fill:#f6a8b5"
   points="746,505.865 790.924,505.865 813.386,544.769 790.924,583.674 746,583.674 723.539,544.769 "
   id="polygon153" />
		<polygon
   style="fill:#f59fb6"
   points="813.386,544.769 858.309,544.769 880.769,583.674 858.309,622.578 813.386,622.578 790.924,583.674 "
   id="polygon154" />
		<polygon
   style="fill:#f290ad"
   points="880.769,505.865 925.693,505.865 948.154,544.769 925.693,583.674 880.769,583.674 858.309,544.769 "
   id="polygon155" />
		<polygon
   style="fill:#f184a8"
   points="948.154,544.769 993.078,544.769 1015.54,583.674 993.078,622.578 948.154,622.578 925.693,583.674 "
   id="polygon156" />
		<polygon
   style="fill:#ed759f"
   points="1015.54,505.865 1060.464,505.865 1082.925,544.769 1060.464,583.674 1015.54,583.674 993.078,544.769 "
   id="polygon157" />
		<polygon
   style="fill:#eb6b9a"
   points="1082.925,544.769 1127.848,544.769 1150.311,583.674 1127.848,622.578 1082.925,622.578 1060.464,583.674 "
   id="polygon158" />
		<polygon
   style="fill:#e86396"
   points="1150.311,505.865 1195.232,505.865 1217.694,544.769 1195.232,583.674 1150.311,583.674 1127.848,544.769 "
   id="polygon159" />
		<polygon
   style="fill:#e76195"
   points="1217.694,544.769 1262.618,544.769 1285.079,583.674 1262.618,622.578 1217.694,622.578 1195.232,583.674 "
   id="polygon160" />
		<polygon
   style="fill:#f5c57d"
   points="-62.618,583.674 -17.695,583.674 4.767,622.578 -17.695,661.482 -62.618,661.482 -85.079,622.578 "
   id="polygon161" />
		<polygon
   style="fill:#f7c684"
   points="4.767,622.578 49.69,622.578 72.152,661.482 49.69,700.387 4.767,700.387 -17.695,661.482 "
   id="polygon162" />
		<polygon
   style="fill:#f8ce90"
   points="72.152,583.674 117.075,583.674 139.537,622.578 117.075,661.482 72.152,661.482 49.69,622.578 "
   id="polygon163" />
		<polygon
   style="fill:#f9d29a"
   points="139.537,622.578 184.46,622.578 206.921,661.482 184.46,700.387 139.537,700.387 117.075,661.482 "
   id="polygon164" />
		<polygon
   style="fill:#f9d5a6"
   points="206.921,583.674 251.845,583.674 274.307,622.578 251.845,661.482 206.921,661.482 184.46,622.578 "
   id="polygon165" />
		<polygon
   style="fill:#f9d3a9"
   points="274.307,622.578 319.229,622.578 341.692,661.482 319.229,700.387 274.307,700.387 251.845,661.482 "
   id="polygon166" />
		<polygon
   style="fill:#f9d1b1"
   points="341.692,583.674 386.614,583.674 409.076,622.578 386.614,661.482 341.692,661.482 319.229,622.578 "
   id="polygon167" />
		<polygon
   style="fill:#fbcbb3"
   points="409.076,622.578 453.999,622.578 476.461,661.482 453.999,700.387 409.076,700.387 386.614,661.482 "
   id="polygon168" />
		<polygon
   style="fill:#fac6b6"
   points="476.461,583.674 521.385,583.674 543.846,622.578 521.385,661.482 476.461,661.482 453.999,622.578 "
   id="polygon169" />
		<polygon
   style="fill:#f9beb7"
   points="543.846,622.578 588.769,622.578 611.231,661.482 588.769,700.387 543.846,700.387 521.385,661.482 "
   id="polygon170" />
		<polygon
   style="fill:#f9b8b8"
   points="611.231,583.674 656.154,583.674 678.615,622.578 656.154,661.482 611.231,661.482 588.769,622.578 "
   id="polygon171" />
		<polygon
   style="fill:#f7b1b9"
   points="678.615,622.578 723.539,622.578 746,661.482 723.539,700.387 678.615,700.387 656.154,661.482 "
   id="polygon172" />
		<polygon
   style="fill:#f7aaba"
   points="746,583.674 790.924,583.674 813.386,622.578 790.924,661.482 746,661.482 723.539,622.578 "
   id="polygon173" />
		<polygon
   style="fill:#f5a0b8"
   points="813.386,622.578 858.309,622.578 880.769,661.482 858.309,700.387 813.386,700.387 790.924,661.482 "
   id="polygon174" />
		<polygon
   style="fill:#f494b2"
   points="880.769,583.674 925.693,583.674 948.154,622.578 925.693,661.482 880.769,661.482 858.309,622.578 "
   id="polygon175" />
		<polygon
   style="fill:#f386ac"
   points="948.154,622.578 993.078,622.578 1015.54,661.482 993.078,700.387 948.154,700.387 925.693,661.482 "
   id="polygon176" />
		<polygon
   style="fill:#ee77a2"
   points="1015.54,583.674 1060.464,583.674 1082.925,622.578 1060.464,661.482 1015.54,661.482 993.078,622.578 "
   id="polygon177" />
		<polygon
   style="fill:#eb6c9c"
   points="1082.925,622.578 1127.848,622.578 1150.311,661.482 1127.848,700.387 1082.925,700.387 1060.464,661.482 "
   id="polygon178" />
		<polygon
   style="fill:#e86497"
   points="1150.311,583.674 1195.232,583.674 1217.694,622.578 1195.232,661.482 1150.311,661.482 1127.848,622.578 "
   id="polygon179" />
		<polygon
   style="fill:#e86296"
   points="1217.694,622.578 1262.618,622.578 1285.079,661.482 1262.618,700.387 1217.694,700.387 1195.232,661.482 "
   id="polygon180" />
		<polygon
   style="fill:#f5c479"
   points="-62.618,661.482 -17.695,661.482 4.767,700.387 -17.695,739.291 -62.618,739.291 -85.079,700.387 "
   id="polygon181" />
		<polygon
   style="fill:#f6c57e"
   points="4.767,700.387 49.69,700.387 72.152,739.291 49.69,778.195 4.767,778.195 -17.695,739.291 "
   id="polygon182" />
		<polygon
   style="fill:#f8cb8d"
   points="72.152,661.482 117.075,661.482 139.537,700.387 117.075,739.291 72.152,739.291 49.69,700.387 "
   id="polygon183" />
		<polygon
   style="fill:#f9cf95"
   points="139.537,700.387 184.46,700.387 206.921,739.291 184.46,778.195 139.537,778.195 117.075,739.291 "
   id="polygon184" />
		<polygon
   style="fill:#fad2a1"
   points="206.921,661.482 251.845,661.482 274.307,700.387 251.845,739.291 206.921,739.291 184.46,700.387 "
   id="polygon185" />
		<polygon
   style="fill:#fad0a5"
   points="274.307,700.387 319.229,700.387 341.692,739.291 319.229,778.195 274.307,778.195 251.845,739.291 "
   id="polygon186" />
		<polygon
   style="fill:#f8d0ad"
   points="341.692,661.482 386.614,661.482 409.076,700.387 386.614,739.291 341.692,739.291 319.229,700.387 "
   id="polygon187" />
		<polygon
   style="fill:#f9c9ae"
   points="409.076,700.387 453.999,700.387 476.461,739.291 453.999,778.195 409.076,778.195 386.614,739.291 "
   id="polygon188" />
		<polygon
   style="fill:#fac4b4"
   points="476.461,661.482 521.385,661.482 543.846,700.387 521.385,739.291 476.461,739.291 453.999,700.387 "
   id="polygon189" />
		<polygon
   style="fill:#f9bcb3"
   points="543.846,700.387 588.769,700.387 611.231,739.291 588.769,778.195 543.846,778.195 521.385,739.291 "
   id="polygon190" />
		<polygon
   style="fill:#f7b7b9"
   points="611.231,661.482 656.154,661.482 678.615,700.387 656.154,739.291 611.231,739.291 588.769,700.387 "
   id="polygon191" />
		<polygon
   style="fill:#f7aeb8"
   points="678.615,700.387 723.539,700.387 746,739.291 723.539,778.195 678.615,778.195 656.154,739.291 "
   id="polygon192" />
		<polygon
   style="fill:#f7a9b8"
   points="746,661.482 790.924,661.482 813.386,700.387 790.924,739.291 746,739.291 723.539,700.387 "
   id="polygon193" />
		<polygon
   style="fill:#f59fb9"
   points="813.386,700.387 858.309,700.387 880.769,739.291 858.309,778.195 813.386,778.195 790.924,739.291 "
   id="polygon194" />
		<polygon
   style="fill:#f495b4"
   points="880.769,661.482 925.693,661.482 948.154,700.387 925.693,739.291 880.769,739.291 858.309,700.387 "
   id="polygon195" />
		<polygon
   style="fill:#f386ac"
   points="948.154,700.387 993.078,700.387 1015.54,739.291 993.078,778.195 948.154,778.195 925.693,739.291 "
   id="polygon196" />
		<polygon
   style="fill:#ef77a3"
   points="1015.54,661.482 1060.464,661.482 1082.925,700.387 1060.464,739.291 1015.54,739.291 993.078,700.387 "
   id="polygon197" />
		<polygon
   style="fill:#ed6c9d"
   points="1082.925,700.387 1127.848,700.387 1150.311,739.291 1127.848,778.195 1082.925,778.195 1060.464,739.291 "
   id="polygon198" />
		<polygon
   style="fill:#e96498"
   points="1150.311,661.482 1195.232,661.482 1217.694,700.387 1195.232,739.291 1150.311,739.291 1127.848,700.387 "
   id="polygon199" />
		<polygon
   style="fill:#e96397"
   points="1217.694,700.387 1262.618,700.387 1285.079,739.291 1262.618,778.195 1217.694,778.195 1195.232,739.291 "
   id="polygon200" />
		<polygon
   style="fill:#f3c176"
   points="-62.618,739.291 -17.695,739.291 4.767,778.195 -17.695,817.1 -62.618,817.1 -85.079,778.195 "
   id="polygon201" />
		<polygon
   style="fill:#f5c37b"
   points="4.767,778.195 49.69,778.195 72.152,817.1 49.69,856.003 4.767,856.003 -17.695,817.1 "
   id="polygon202" />
		<polygon
   style="fill:#f8c986"
   points="72.152,739.291 117.075,739.291 139.537,778.195 117.075,817.1 72.152,817.1 49.69,778.195 "
   id="polygon203" />
		<polygon
   style="fill:#f7cc8e"
   points="139.537,778.195 184.46,778.195 206.921,817.1 184.46,856.003 139.537,856.003 117.075,817.1 "
   id="polygon204" />
		<polygon
   style="fill:#f8d09b"
   points="206.921,739.291 251.845,739.291 274.307,778.195 251.845,817.1 206.921,817.1 184.46,778.195 "
   id="polygon205" />
		<polygon
   style="fill:#f8cd9d"
   points="274.307,778.195 319.229,778.195 341.692,817.1 319.229,856.003 274.307,856.003 251.845,817.1 "
   id="polygon206" />
		<polygon
   style="fill:#facca7"
   points="341.692,739.291 386.614,739.291 409.076,778.195 386.614,817.1 341.692,817.1 319.229,778.195 "
   id="polygon207" />
		<polygon
   style="fill:#f9c8a7"
   points="409.076,778.195 453.999,778.195 476.461,817.1 453.999,856.003 409.076,856.003 386.614,817.1 "
   id="polygon208" />
		<polygon
   style="fill:#f8c3ad"
   points="476.461,739.291 521.385,739.291 543.846,778.195 521.385,817.1 476.461,817.1 453.999,778.195 "
   id="polygon209" />
		<polygon
   style="fill:#f8baad"
   points="543.846,778.195 588.769,778.195 611.231,817.1 588.769,856.003 543.846,856.003 521.385,817.1 "
   id="polygon210" />
		<polygon
   style="fill:#f7b5b3"
   points="611.231,739.291 656.154,739.291 678.615,778.195 656.154,817.1 611.231,817.1 588.769,778.195 "
   id="polygon211" />
		<polygon
   style="fill:#f6aeb4"
   points="678.615,778.195 723.539,778.195 746,817.1 723.539,856.003 678.615,856.003 656.154,817.1 "
   id="polygon212" />
		<polygon
   style="fill:#f6a7b6"
   points="746,739.291 790.924,739.291 813.386,778.195 790.924,817.1 746,817.1 723.539,778.195 "
   id="polygon213" />
		<polygon
   style="fill:#f59db5"
   points="813.386,778.195 858.309,778.195 880.769,817.1 858.309,856.003 813.386,856.003 790.924,817.1 "
   id="polygon214" />
		<polygon
   style="fill:#f493b3"
   points="880.769,739.291 925.693,739.291 948.154,778.195 925.693,817.1 880.769,817.1 858.309,778.195 "
   id="polygon215" />
		<polygon
   style="fill:#f284aa"
   points="948.154,778.195 993.078,778.195 1015.54,817.1 993.078,856.003 948.154,856.003 925.693,817.1 "
   id="polygon216" />
		<polygon
   style="fill:#ef76a2"
   points="1015.54,739.291 1060.464,739.291 1082.925,778.195 1060.464,817.1 1015.54,817.1 993.078,778.195 "
   id="polygon217" />
		<polygon
   style="fill:#ec6b9d"
   points="1082.925,778.195 1127.848,778.195 1150.311,817.1 1127.848,856.003 1082.925,856.003 1060.464,817.1 "
   id="polygon218" />
		<polygon
   style="fill:#e96498"
   points="1150.311,739.291 1195.232,739.291 1217.694,778.195 1195.232,817.1 1150.311,817.1 1127.848,778.195 "
   id="polygon219" />
		<polygon
   style="fill:#e96397"
   points="1217.694,778.195 1262.618,778.195 1285.079,817.1 1262.618,856.003 1217.694,856.003 1195.232,817.1 "
   id="polygon220" />
		<polygon
   style="fill:#f3c077"
   points="-62.618,817.1 -17.695,817.1 4.767,856.003 -17.695,894.908 -62.618,894.908 -85.079,856.003 "
   id="polygon221" />
		<polygon
   style="fill:#f3c178"
   points="4.767,856.003 49.69,856.003 72.152,894.908 49.69,933.813 4.767,933.813 -17.695,894.908 "
   id="polygon222" />
		<polygon
   style="fill:#f6c680"
   points="72.152,817.1 117.075,817.1 139.537,856.003 117.075,894.908 72.152,894.908 49.69,856.003 "
   id="polygon223" />
		<polygon
   style="fill:#f7c885"
   points="139.537,856.003 184.46,856.003 206.921,894.908 184.46,933.813 139.537,933.813 117.075,894.908 "
   id="polygon224" />
		<polygon
   style="fill:#f8cc94"
   points="206.921,817.1 251.845,817.1 274.307,856.003 251.845,894.908 206.921,894.908 184.46,856.003 "
   id="polygon225" />
		<polygon
   style="fill:#f8ca94"
   points="274.307,856.003 319.229,856.003 341.692,894.908 319.229,933.813 274.307,933.813 251.845,894.908 "
   id="polygon226" />
		<polygon
   style="fill:#f8ca9f"
   points="341.692,817.1 386.614,817.1 409.076,856.003 386.614,894.908 341.692,894.908 319.229,856.003 "
   id="polygon227" />
		<polygon
   style="fill:#f9c39e"
   points="409.076,856.003 453.999,856.003 476.461,894.908 453.999,933.813 409.076,933.813 386.614,894.908 "
   id="polygon228" />
		<polygon
   style="fill:#f7c0a6"
   points="476.461,817.1 521.385,817.1 543.846,856.003 521.385,894.908 476.461,894.908 453.999,856.003 "
   id="polygon229" />
		<polygon
   style="fill:#f8b5a4"
   points="543.846,856.003 588.769,856.003 611.231,894.908 588.769,933.813 543.846,933.813 521.385,894.908 "
   id="polygon230" />
		<polygon
   style="fill:#f6b2ac"
   points="611.231,817.1 656.154,817.1 678.615,856.003 656.154,894.908 611.231,894.908 588.769,856.003 "
   id="polygon231" />
		<polygon
   style="fill:#f6a9ac"
   points="678.615,856.003 723.539,856.003 746,894.908 723.539,933.813 678.615,933.813 656.154,894.908 "
   id="polygon232" />
		<polygon
   style="fill:#f6a4b3"
   points="746,817.1 790.924,817.1 813.386,856.003 790.924,894.908 746,894.908 723.539,856.003 "
   id="polygon233" />
		<polygon
   style="fill:#f597b0"
   points="813.386,856.003 858.309,856.003 880.769,894.908 858.309,933.813 813.386,933.813 790.924,894.908 "
   id="polygon234" />
		<polygon
   style="fill:#f390ae"
   points="880.769,817.1 925.693,817.1 948.154,856.003 925.693,894.908 880.769,894.908 858.309,856.003 "
   id="polygon235" />
		<polygon
   style="fill:#ef80a6"
   points="948.154,856.003 993.078,856.003 1015.54,894.908 993.078,933.813 948.154,933.813 925.693,894.908 "
   id="polygon236" />
		<polygon
   style="fill:#ed76a0"
   points="1015.54,817.1 1060.464,817.1 1082.925,856.003 1060.464,894.908 1015.54,894.908 993.078,856.003 "
   id="polygon237" />
		<polygon
   style="fill:#eb699b"
   points="1082.925,856.003 1127.848,856.003 1150.311,894.908 1127.848,933.813 1082.925,933.813 1060.464,894.908 "
   id="polygon238" />
		<polygon
   style="fill:#e86498"
   points="1150.311,817.1 1195.232,817.1 1217.694,856.003 1195.232,894.908 1150.311,894.908 1127.848,856.003 "
   id="polygon239" />
		<polygon
   style="fill:#e76195"
   points="1217.694,856.003 1262.618,856.003 1285.079,894.908 1262.618,933.813 1217.694,933.813 1195.232,894.908 "
   id="polygon240" />
		<polygon
   style="fill:#f0bd74"
   points="-62.618,894.908 -17.695,894.908 4.767,933.813 -17.695,972.716 -62.618,972.716 -85.079,933.813 "
   id="polygon241" />
		<polygon
   style="fill:#f0bd75"
   points="4.767,933.813 49.69,933.813 72.152,972.716 49.69,1011.621 4.767,1011.621 -17.695,972.716 "
   id="polygon242" />
		<polygon
   style="fill:#f4c37b"
   points="72.152,894.908 117.075,894.908 139.537,933.813 117.075,972.716 72.152,972.716 49.69,933.813 "
   id="polygon243" />
		<polygon
   style="fill:#f6c480"
   points="139.537,933.813 184.46,933.813 206.921,972.716 184.46,1011.621 139.537,1011.621 117.075,972.716 "
   id="polygon244" />
		<polygon
   style="fill:#f8c889"
   points="206.921,894.908 251.845,894.908 274.307,933.813 251.845,972.716 206.921,972.716 184.46,933.813 "
   id="polygon245" />
		<polygon
   style="fill:#f6c58a"
   points="274.307,933.813 319.229,933.813 341.692,972.716 319.229,1011.621 274.307,1011.621 251.845,972.716 "
   id="polygon246" />
		<polygon
   style="fill:#f6c594"
   points="341.692,894.908 386.614,894.908 409.076,933.813 386.614,972.716 341.692,972.716 319.229,933.813 "
   id="polygon247" />
		<polygon
   style="fill:#f6bf92"
   points="409.076,933.813 453.999,933.813 476.461,972.716 453.999,1011.621 409.076,1011.621 386.614,972.716 "
   id="polygon248" />
		<polygon
   style="fill:#f6bb9c"
   points="476.461,894.908 521.385,894.908 543.846,933.813 521.385,972.716 476.461,972.716 453.999,933.813 "
   id="polygon249" />
		<polygon
   style="fill:#f4b39b"
   points="543.846,933.813 588.769,933.813 611.231,972.716 588.769,1011.621 543.846,1011.621 521.385,972.716 "
   id="polygon250" />
		<polygon
   style="fill:#f6aea4"
   points="611.231,894.908 656.154,894.908 678.615,933.813 656.154,972.716 611.231,972.716 588.769,933.813 "
   id="polygon251" />
		<polygon
   style="fill:#f5a3a2"
   points="678.615,933.813 723.539,933.813 746,972.716 723.539,1011.621 678.615,1011.621 656.154,972.716 "
   id="polygon252" />
		<polygon
   style="fill:#f49daa"
   points="746,894.908 790.924,894.908 813.386,933.813 790.924,972.716 746,972.716 723.539,933.813 "
   id="polygon253" />
		<polygon
   style="fill:#f392a6"
   points="813.386,933.813 858.309,933.813 880.769,972.716 858.309,1011.621 813.386,1011.621 790.924,972.716 "
   id="polygon254" />
		<polygon
   style="fill:#f18aa8"
   points="880.769,894.908 925.693,894.908 948.154,933.813 925.693,972.716 880.769,972.716 858.309,933.813 "
   id="polygon255" />
		<polygon
   style="fill:#ef7c9f"
   points="948.154,933.813 993.078,933.813 1015.54,972.716 993.078,1011.621 948.154,1011.621 925.693,972.716 "
   id="polygon256" />
		<polygon
   style="fill:#ec729e"
   points="1015.54,894.908 1060.464,894.908 1082.925,933.813 1060.464,972.716 1015.54,972.716 993.078,933.813 "
   id="polygon257" />
		<polygon
   style="fill:#ea6798"
   points="1082.925,933.813 1127.848,933.813 1150.311,972.716 1127.848,1011.621 1082.925,1011.621 1060.464,972.716 "
   id="polygon258" />
		<polygon
   style="fill:#e76397"
   points="1150.311,894.908 1195.232,894.908 1217.694,933.813 1195.232,972.716 1150.311,972.716 1127.848,933.813 "
   id="polygon259" />
		<polygon
   style="fill:#e76296"
   points="1217.694,933.813 1262.618,933.813 1285.079,972.716 1262.618,1011.621 1217.694,1011.621 1195.232,972.716 "
   id="polygon260" />
		<polygon
   style="fill:#efbb73"
   points="-62.618,972.716 -17.695,972.716 4.767,1011.621 -17.695,1050.525 -62.618,1050.525 -85.079,1011.621 "
   id="polygon261" />
		<polygon
   style="fill:#efbc73"
   points="4.767,1011.621 49.69,1011.621 72.152,1050.525 49.69,1089.429 4.767,1089.429 -17.695,1050.525 "
   id="polygon262" />
		<polygon
   style="fill:#f2bf77"
   points="72.152,972.716 117.075,972.716 139.537,1011.621 117.075,1050.525 72.152,1050.525 49.69,1011.621 "
   id="polygon263" />
		<polygon
   style="fill:#f3c07a"
   points="139.537,1011.621 184.46,1011.621 206.921,1050.525 184.46,1089.429 139.537,1089.429 117.075,1050.525 "
   id="polygon264" />
		<polygon
   style="fill:#f6c481"
   points="206.921,972.716 251.845,972.716 274.307,1011.621 251.845,1050.525 206.921,1050.525 184.46,1011.621 "
   id="polygon265" />
		<polygon
   style="fill:#f6c181"
   points="274.307,1011.621 319.229,1011.621 341.692,1050.525 319.229,1089.429 274.307,1089.429 251.845,1050.525 "
   id="polygon266" />
		<polygon
   style="fill:#f6c189"
   points="341.692,972.716 386.614,972.716 409.076,1011.621 386.614,1050.525 341.692,1050.525 319.229,1011.621 "
   id="polygon267" />
		<polygon
   style="fill:#f7bb89"
   points="409.076,1011.621 453.999,1011.621 476.461,1050.525 453.999,1089.429 409.076,1089.429 386.614,1050.525 "
   id="polygon268" />
		<polygon
   style="fill:#f6b892"
   points="476.461,972.716 521.385,972.716 543.846,1011.621 521.385,1050.525 476.461,1050.525 453.999,1011.621 "
   id="polygon269" />
		<polygon
   style="fill:#f5b092"
   points="543.846,1011.621 588.769,1011.621 611.231,1050.525 588.769,1089.429 543.846,1089.429 521.385,1050.525 "
   id="polygon270" />
		<polygon
   style="fill:#f4a99a"
   points="611.231,972.716 656.154,972.716 678.615,1011.621 656.154,1050.525 611.231,1050.525 588.769,1011.621 "
   id="polygon271" />
		<polygon
   style="fill:#f59f99"
   points="678.615,1011.621 723.539,1011.621 746,1050.525 723.539,1089.429 678.615,1089.429 656.154,1050.525 "
   id="polygon272" />
		<polygon
   style="fill:#f498a0"
   points="746,972.716 790.924,972.716 813.386,1011.621 790.924,1050.525 746,1050.525 723.539,1011.621 "
   id="polygon273" />
		<polygon
   style="fill:#f28c9f"
   points="813.386,1011.621 858.309,1011.621 880.769,1050.525 858.309,1089.429 813.386,1089.429 790.924,1050.525 "
   id="polygon274" />
		<polygon
   style="fill:#f084a2"
   points="880.769,972.716 925.693,972.716 948.154,1011.621 925.693,1050.525 880.769,1050.525 858.309,1011.621 "
   id="polygon275" />
		<polygon
   style="fill:#ed779c"
   points="948.154,1011.621 993.078,1011.621 1015.54,1050.525 993.078,1089.429 948.154,1089.429 925.693,1050.525 "
   id="polygon276" />
		<polygon
   style="fill:#eb6f9c"
   points="1015.54,972.716 1060.464,972.716 1082.925,1011.621 1060.464,1050.525 1015.54,1050.525 993.078,1011.621 "
   id="polygon277" />
		<polygon
   style="fill:#e86696"
   points="1082.925,1011.621 1127.848,1011.621 1150.311,1050.525 1127.848,1089.429 1082.925,1089.429 1060.464,1050.525 "
   id="polygon278" />
		<polygon
   style="fill:#e76296"
   points="1150.311,972.716 1195.232,972.716 1217.694,1011.621 1195.232,1050.525 1150.311,1050.525 1127.848,1011.621 "
   id="polygon279" />
		<polygon
   style="fill:#e56095"
   points="1217.694,1011.621 1262.618,1011.621 1285.079,1050.525 1262.618,1089.429 1217.694,1089.429 1195.232,1050.525 "
   id="polygon280" />
		<polygon
   style="fill:#edba71"
   points="-62.618,1050.525 -17.695,1050.525 4.767,1089.429 -17.695,1128.333 -62.618,1128.333 -85.079,1089.429 "
   id="polygon281" />
		<polygon
   style="fill:#edba72"
   points="4.767,1089.429 49.69,1089.429 72.152,1128.333 49.69,1167.238 4.767,1167.238 -17.695,1128.333 "
   id="polygon282" />
		<polygon
   style="fill:#efbc74"
   points="72.152,1050.525 117.075,1050.525 139.537,1089.429 117.075,1128.333 72.152,1128.333 49.69,1089.429 "
   id="polygon283" />
		<polygon
   style="fill:#f0bd75"
   points="139.537,1089.429 184.46,1089.429 206.921,1128.333 184.46,1167.238 139.537,1167.238 117.075,1128.333 "
   id="polygon284" />
		<polygon
   style="fill:#f3c07a"
   points="206.921,1050.525 251.845,1050.525 274.307,1089.429 251.845,1128.333 206.921,1128.333 184.46,1089.429 "
   id="polygon285" />
		<polygon
   style="fill:#f4bf7b"
   points="274.307,1089.429 319.229,1089.429 341.692,1128.333 319.229,1167.238 274.307,1167.238 251.845,1128.333 "
   id="polygon286" />
		<polygon
   style="fill:#f5be7f"
   points="341.692,1050.525 386.614,1050.525 409.076,1089.429 386.614,1128.333 341.692,1128.333 319.229,1089.429 "
   id="polygon287" />
		<polygon
   style="fill:#f5ba80"
   points="409.076,1089.429 453.999,1089.429 476.461,1128.333 453.999,1167.238 409.076,1167.238 386.614,1128.333 "
   id="polygon288" />
		<polygon
   style="fill:#f5b587"
   points="476.461,1050.525 521.385,1050.525 543.846,1089.429 521.385,1128.333 476.461,1128.333 453.999,1089.429 "
   id="polygon289" />
		<polygon
   style="fill:#f3ae88"
   points="543.846,1089.429 588.769,1089.429 611.231,1128.333 588.769,1167.238 543.846,1167.238 521.385,1128.333 "
   id="polygon290" />
		<polygon
   style="fill:#f4a78e"
   points="611.231,1050.525 656.154,1050.525 678.615,1089.429 656.154,1128.333 611.231,1128.333 588.769,1089.429 "
   id="polygon291" />
		<polygon
   style="fill:#f29c8f"
   points="678.615,1089.429 723.539,1089.429 746,1128.333 723.539,1167.238 678.615,1167.238 656.154,1128.333 "
   id="polygon292" />
		<polygon
   style="fill:#f39398"
   points="746,1050.525 790.924,1050.525 813.386,1089.429 790.924,1128.333 746,1128.333 723.539,1089.429 "
   id="polygon293" />
		<polygon
   style="fill:#ef8796"
   points="813.386,1089.429 858.309,1089.429 880.769,1128.333 858.309,1167.238 813.386,1167.238 790.924,1128.333 "
   id="polygon294" />
		<polygon
   style="fill:#ee7e9b"
   points="880.769,1050.525 925.693,1050.525 948.154,1089.429 925.693,1128.333 880.769,1128.333 858.309,1089.429 "
   id="polygon295" />
		<polygon
   style="fill:#ea7397"
   points="948.154,1089.429 993.078,1089.429 1015.54,1128.333 993.078,1167.238 948.154,1167.238 925.693,1128.333 "
   id="polygon296" />
		<polygon
   style="fill:#ea6c96"
   points="1015.54,1050.525 1060.464,1050.525 1082.925,1089.429 1060.464,1128.333 1015.54,1128.333 993.078,1089.429 "
   id="polygon297" />
		<polygon
   style="fill:#e66494"
   points="1082.925,1089.429 1127.848,1089.429 1150.311,1128.333 1127.848,1167.238 1082.925,1167.238 1060.464,1128.333 "
   id="polygon298" />
		<polygon
   style="fill:#e56095"
   points="1150.311,1050.525 1195.232,1050.525 1217.694,1089.429 1195.232,1128.333 1150.311,1128.333 1127.848,1089.429 "
   id="polygon299" />
		<polygon
   style="fill:#e35f93"
   points="1217.694,1089.429 1262.618,1089.429 1285.079,1128.333 1262.618,1167.238 1217.694,1167.238 1195.232,1128.333 "
   id="polygon300" />
		<polygon
   style="fill:#ebb870"
   points="-62.618,1128.333 -17.695,1128.333 4.767,1167.238 -17.695,1206.142 -62.618,1206.142 -85.079,1167.238 "
   id="polygon301" />
		<polygon
   style="fill:#ebb970"
   points="4.767,1167.238 49.69,1167.238 72.152,1206.142 49.69,1245.046 4.767,1245.046 -17.695,1206.142 "
   id="polygon302" />
		<polygon
   style="fill:#eebb72"
   points="72.152,1128.333 117.075,1128.333 139.537,1167.238 117.075,1206.142 72.152,1206.142 49.69,1167.238 "
   id="polygon303" />
		<polygon
   style="fill:#f0bb73"
   points="139.537,1167.238 184.46,1167.238 206.921,1206.142 184.46,1245.046 139.537,1245.046 117.075,1206.142 "
   id="polygon304" />
		<polygon
   style="fill:#f2be76"
   points="206.921,1128.333 251.845,1128.333 274.307,1167.238 251.845,1206.142 206.921,1206.142 184.46,1167.238 "
   id="polygon305" />
		<polygon
   style="fill:#f4be75"
   points="274.307,1167.238 319.229,1167.238 341.692,1206.142 319.229,1245.046 274.307,1245.046 251.845,1206.142 "
   id="polygon306" />
		<polygon
   style="fill:#f5bd7a"
   points="341.692,1128.333 386.614,1128.333 409.076,1167.238 386.614,1206.142 341.692,1206.142 319.229,1167.238 "
   id="polygon307" />
		<polygon
   style="fill:#f5b97b"
   points="409.076,1167.238 453.999,1167.238 476.461,1206.142 453.999,1245.046 409.076,1245.046 386.614,1206.142 "
   id="polygon308" />
		<polygon
   style="fill:#f4b581"
   points="476.461,1128.333 521.385,1128.333 543.846,1167.238 521.385,1206.142 476.461,1206.142 453.999,1167.238 "
   id="polygon309" />
		<polygon
   style="fill:#f2af81"
   points="543.846,1167.238 588.769,1167.238 611.231,1206.142 588.769,1245.046 543.846,1245.046 521.385,1206.142 "
   id="polygon310" />
		<polygon
   style="fill:#f2a686"
   points="611.231,1128.333 656.154,1128.333 678.615,1167.238 656.154,1206.142 611.231,1206.142 588.769,1167.238 "
   id="polygon311" />
		<polygon
   style="fill:#f19a88"
   points="678.615,1167.238 723.539,1167.238 746,1206.142 723.539,1245.046 678.615,1245.046 656.154,1206.142 "
   id="polygon312" />
		<polygon
   style="fill:#f0918f"
   points="746,1128.333 790.924,1128.333 813.386,1167.238 790.924,1206.142 746,1206.142 723.539,1167.238 "
   id="polygon313" />
		<polygon
   style="fill:#ed848f"
   points="813.386,1167.238 858.309,1167.238 880.769,1206.142 858.309,1245.046 813.386,1245.046 790.924,1206.142 "
   id="polygon314" />
		<polygon
   style="fill:#eb7b93"
   points="880.769,1128.333 925.693,1128.333 948.154,1167.238 925.693,1206.142 880.769,1206.142 858.309,1167.238 "
   id="polygon315" />
		<polygon
   style="fill:#e86f93"
   points="948.154,1167.238 993.078,1167.238 1015.54,1206.142 993.078,1245.046 948.154,1245.046 925.693,1206.142 "
   id="polygon316" />
		<polygon
   style="fill:#e76a94"
   points="1015.54,1128.333 1060.464,1128.333 1082.925,1167.238 1060.464,1206.142 1015.54,1206.142 993.078,1167.238 "
   id="polygon317" />
		<polygon
   style="fill:#e46493"
   points="1082.925,1167.238 1127.848,1167.238 1150.311,1206.142 1127.848,1245.046 1082.925,1245.046 1060.464,1206.142 "
   id="polygon318" />
		<polygon
   style="fill:#e36093"
   points="1150.311,1128.333 1195.232,1128.333 1217.694,1167.238 1195.232,1206.142 1150.311,1206.142 1127.848,1167.238 "
   id="polygon319" />
		<polygon
   style="fill:#e26093"
   points="1217.694,1167.238 1262.618,1167.238 1285.079,1206.142 1262.618,1245.046 1217.694,1245.046 1195.232,1206.142 "
   id="polygon320" />
	</g>
</g>
</svg>
